<svg xmlns="http://www.w3.org/2000/svg" xmlns:xlink="http://www.w3.org/1999/xlink" height="671" version="1.1" viewBox="0 0 589 671" width="589"><rect fill="#ffffff" height="671" width="589"/><ellipse cx="253" cy="110" fill="#eeeeee" rx="72" ry="20" stroke="white" stroke-width="1.0"/><text fill="black" font-decoration="none" font-family="Arial,Helvetica" font-size="16" font-weight="normal" text-anchor="middle"><tspan x="253" y="115">antilysin</tspan></text><ellipse cx="204" cy="650" fill="#eeeeee" rx="104" ry="20" stroke="white" stroke-width="1.0"/><text fill="black" font-decoration="none" font-family="Arial,Helvetica" font-size="16" font-weight="normal" text-anchor="middle"><tspan x="203" y="655">epicoracoidal</tspan></text><ellipse cx="355" cy="20" fill="#eeeeee" rx="112" ry="20" stroke="white" stroke-width="1.0"/><text fill="black" font-decoration="none" font-family="Arial,Helvetica" font-size="16" font-weight="normal" text-anchor="middle"><tspan x="355" y="25">pharmacopoeist</tspan></text><ellipse cx="263" cy="380" fill="#eeeeee" rx="80" ry="20" stroke="white" stroke-width="1.0"/><text fill="black" font-decoration="none" font-family="Arial,Helvetica" font-size="16" font-weight="normal" text-anchor="middle"><tspan x="263" y="385">phylloclad</tspan></text><ellipse cx="345" cy="290" fill="#eeeeee" rx="128" ry="20" stroke="white" stroke-width="1.0"/><text fill="black" font-decoration="none" font-family="Arial,Helvetica" font-size="16" font-weight="normal" text-anchor="middle"><tspan x="344" y="295">sacrilegiousness</tspan></text><ellipse cx="253" cy="200" fill="#eeeeee" rx="88" ry="20" stroke="white" stroke-width="1.0"/><text fill="black" font-decoration="none" font-family="Arial,Helvetica" font-size="16" font-weight="normal" text-anchor="middle"><tspan x="252" y="205">extrabuccal</tspan></text><ellipse cx="297" cy="560" fill="#eeeeee" rx="64" ry="20" stroke="white" stroke-width="1.0"/><text fill="black" font-decoration="none" font-family="Arial,Helvetica" font-size="16" font-weight="normal" text-anchor="middle"><tspan x="297" y="565">Strelitz</tspan></text><ellipse cx="155" cy="290" fill="#eeeeee" rx="32" ry="20" stroke="white" stroke-width="1.0"/><text fill="black" font-decoration="none" font-family="Arial,Helvetica" font-size="16" font-weight="normal" text-anchor="middle"><tspan x="154" y="295">spay</tspan></text><ellipse cx="402" cy="650" fill="#eeeeee" rx="64" ry="20" stroke="white" stroke-width="1.0"/><text fill="black" font-decoration="none" font-family="Arial,Helvetica" font-size="16" font-weight="normal" text-anchor="middle"><tspan x="402" y="655">agrimony</tspan></text><ellipse cx="237" cy="470" fill="#eeeeee" rx="48" ry="20" stroke="white" stroke-width="1.0"/><text fill="black" font-decoration="none" font-family="Arial,Helvetica" font-size="16" font-weight="normal" text-anchor="middle"><tspan x="237" y="475">unbody</tspan></text><g><path d="M 253.5 631.9106780812298 L 250.5 625.9106780812298 L 253.5 627.4106780812298 L 256.5 625.9106780812298 z" fill="#999" stroke="#999" stroke-width="1.0"/><path d="M 267.5 578.2486520174773 L 267.5 585.1243260087386 Q 267.5 592.0 262.75900176964984 600.8047109992217 L 258.1295008848249 609.4023554996108 Q 253.5 618.0 253.5 625.205339040615 L 253.5 632.4106780812298" fill="none" stroke="#999" stroke-width="1.0"/></g><text fill="black" font-decoration="none" font-family="Arial,Helvetica" font-size="11" font-weight="normal" text-anchor="middle"><tspan x="260" y="607">defunctionalize</tspan></text><g><path d="M 362.6666666666667 633.722961920704 L 359.6666666666667 627.722961920704 L 362.6666666666667 629.222961920704 L 365.6666666666667 627.722961920704 z" fill="#999" stroke="#999" stroke-width="1.0"/><path d="M 326.5 578.2486520174773 L 326.5 585.1243260087386 Q 326.5 592.0 334.61959952182497 597.8371314534778 L 354.5470671448418 612.1628685465222 Q 362.6666666666667 618.0 362.6666666666667 626.1114809603521 L 362.6666666666667 634.222961920704" fill="none" stroke="#999" stroke-width="1.0"/></g><text fill="black" font-decoration="none" font-family="Arial,Helvetica" font-size="11" font-weight="normal" text-anchor="middle"><tspan x="344" y="608">jumpingly</tspan></text><g><path d="M 258.5 451.61849380256547 L 255.5 445.61849380256547 L 258.5 447.11849380256547 L 261.5 445.61849380256547 z" fill="#999" stroke="#999" stroke-width="1.0"/><path d="M 263.0 400.5 L 263.0 406.25 Q 263.0 412.0 261.2945856629425 421.8535050585545 L 259.89729283147125 429.9267525292772 Q 258.5 438.0 258.5 445.05924690128273 L 258.5 452.11849380256547" fill="none" stroke="#999" stroke-width="1.0"/></g><text fill="black" font-decoration="none" font-family="Arial,Helvetica" font-size="11" font-weight="normal" text-anchor="middle"><tspan x="260" y="428">pseudoscientific</tspan></text><g><path d="M 253.0 89.5 L 250.0 83.5 L 253.0 85.0 L 256.0 83.5 z" fill="#999" stroke="#999" stroke-width="1.0"/><path d="M 283.6666666666667 35.91884981784359 L 283.6666666666667 43.9594249089218 Q 283.6666666666667 52.0 276.03909703199554 58.4668525163516 L 260.62756963467115 71.53314748364839 Q 253.0 78.0 253.0 84.0 L 253.0 90.0" fill="none" stroke="#999" stroke-width="1.0"/></g><text fill="black" font-decoration="none" font-family="Arial,Helvetica" font-size="11" font-weight="normal" text-anchor="middle"><tspan x="269" y="66">nonexpiation</tspan></text><g><path d="M 215.5 451.61849380256547 L 212.5 445.61849380256547 L 215.5 447.11849380256547 L 218.5 445.61849380256547 z" fill="#999" stroke="#999" stroke-width="1.0"/><path d="M 197.66666666666666 216.05153758944033 L 197.66666666666666 224.02576879472016 Q 197.66666666666666 232.0 187.74291850932528 233.23256744629398 L 102.92374815734138 243.76743255370602 Q 93.0 245.0 93.0 255.0 L 93.0 325.0 Q 93.0 335.0 93.0 335.0 L 93.0 335.0 L 93.0 415.0 Q 93.0 425.0 102.944161329206 426.0552987533035 L 205.555838670794 436.9447012466965 Q 215.5 438.0 215.5 445.05924690128273 L 215.5 452.11849380256547" fill="none" stroke="#999" stroke-width="1.0"/></g><text fill="black" font-decoration="none" font-family="Arial,Helvetica" font-size="11" font-weight="normal" text-anchor="middle"><tspan x="93" y="345">Pellian</tspan></text><g><path d="M 272.1428571428571 129.78016119673885 L 275.1428571428571 135.78016119673885 L 272.1428571428571 134.28016119673885 L 269.1428571428571 135.78016119673885 z" fill="#999" stroke="#999" stroke-width="1.0"/><path d="M 345.0 269.5 L 345.0 262.75 Q 345.0 256.0 354.2096725106856 252.103600091633 L 362.6048362553428 248.5518000458165 Q 371.0 245.0 371.0 235.0 L 371.0 165.0 Q 371.0 155.0 361.024975866745 154.29367603680708 L 282.1178812761121 148.70632396319292 Q 272.1428571428571 148.0 272.1428571428571 138.64008059836942 L 272.1428571428571 129.28016119673885" fill="none" stroke="#999" stroke-width="1.0"/></g><text fill="black" font-decoration="none" font-family="Arial,Helvetica" font-size="11" font-weight="normal" text-anchor="middle"><tspan x="371" y="164">xylopyrography</tspan></text><g><path d="M 300.4065976876731 657.7747256199737 L 306.62833398750513 655.26673889446 L 304.8920354852264 658.136454474615 L 306.1460288479833 661.247322624531 z" fill="#999" stroke="#999" stroke-width="1.0"/><path d="M 300.4065976876731 642.2252743800263 L 318.03236044988154 640.8038418992031 Q 328.0 640.0 328.0 650.0 L 328.0 655.0 Q 328.0 660.0 318.03236044988154 659.1961581007969 L 299.9082157101672 657.7345335250135" fill="none" stroke="#999" stroke-width="1.0"/></g><text fill="black" font-decoration="none" font-family="Arial,Helvetica" font-size="11" font-weight="normal" text-anchor="middle"><tspan x="316" y="652">gripless</tspan></text><g><path d="M 313.0 363.887505004004 L 310.0 357.887505004004 L 313.0 359.387505004004 L 316.0 357.887505004004 z" fill="#999" stroke="#999" stroke-width="1.0"/><path d="M 345.0 310.5 L 345.0 316.25 Q 345.0 322.0 337.0 328.0 L 321.0 340.0 Q 313.0 346.0 313.0 355.193752502002 L 313.0 364.387505004004" fill="none" stroke="#999" stroke-width="1.0"/></g><text fill="black" font-decoration="none" font-family="Arial,Helvetica" font-size="11" font-weight="normal" text-anchor="middle"><tspan x="326" y="338">centralism</tspan></text><g><path d="M 263.0 274.14292203086796 L 260.0 268.14292203086796 L 263.0 269.64292203086796 L 266.0 268.14292203086796 z" fill="#999" stroke="#999" stroke-width="1.0"/><path d="M 308.3333333333333 216.05153758944036 L 308.3333333333333 224.0257687947202 Q 308.3333333333333 232.0 299.65876307058903 236.97512118010334 L 271.6745702627443 253.02487881989666 Q 263.0 258.0 263.0 266.321461015434 L 263.0 274.64292203086796" fill="none" stroke="#999" stroke-width="1.0"/></g><text fill="black" font-decoration="none" font-family="Arial,Helvetica" font-size="11" font-weight="normal" text-anchor="middle"><tspan x="285" y="247">Reteporidae</tspan></text><g><path d="M 297.0 539.5 L 294.0 533.5 L 297.0 535.0 L 300.0 533.5 z" fill="#999" stroke="#999" stroke-width="1.0"/><path d="M 155.0 310.5 L 155.0 316.25 Q 155.0 322.0 164.98226679192038 322.59527279034387 L 363.0177332080796 334.40472720965613 Q 373.0 335.0 373.0 345.0 L 373.0 415.0 Q 373.0 425.0 373.0 425.0 L 373.0 425.0 L 373.0 505.0 Q 373.0 515.0 363.1031262911932 516.4324422473273 L 306.8968737088068 524.5675577526727 Q 297.0 526.0 297.0 533.0 L 297.0 540.0" fill="none" stroke="#999" stroke-width="1.0"/></g><text fill="black" font-decoration="none" font-family="Arial,Helvetica" font-size="11" font-weight="normal" text-anchor="middle"><tspan x="373" y="357">foggage</tspan></text><g><path d="M 213.0 363.887505004004 L 210.0 357.887505004004 L 213.0 359.387505004004 L 216.0 357.887505004004 z" fill="#999" stroke="#999" stroke-width="1.0"/><path d="M 214.71428571428572 127.43807731381987 L 214.71428571428572 135.71903865690993 Q 214.71428571428572 144.0 204.73882924500046 144.70019156621237 L 67.97545646928526 154.29980843378763 Q 58.0 155.0 58.0 165.0 L 58.0 235.0 Q 58.0 245.0 58.0 245.0 L 58.0 245.0 L 58.0 325.0 Q 58.0 335.0 67.96501278000747 335.83577526541995 L 203.03498721999253 347.16422473458 Q 213.0 348.0 213.0 356.193752502002 L 213.0 364.387505004004" fill="none" stroke="#999" stroke-width="1.0"/></g><text fill="black" font-decoration="none" font-family="Arial,Helvetica" font-size="11" font-weight="normal" text-anchor="middle"><tspan x="57" y="246">backstone</tspan></text><g><path d="M 427.0 274.14292203086796 L 424.0 268.14292203086796 L 427.0 269.64292203086796 L 430.0 268.14292203086796 z" fill="#999" stroke="#999" stroke-width="1.0"/><path d="M 355.0 40.5 L 355.0 47.25 Q 355.0 54.0 364.72578891654416 56.32573213221708 L 391.27421108345584 62.674267867782916 Q 401.0 65.0 401.0 75.0 L 401.0 145.0 Q 401.0 155.0 401.0 155.0 L 401.0 155.0 L 401.0 235.0 Q 401.0 245.0 409.94427190999915 249.47213595499957 L 418.47213595499954 253.73606797749977 Q 427.0 258.0 427.0 266.321461015434 L 427.0 274.64292203086796" fill="none" stroke="#999" stroke-width="1.0"/></g><text fill="black" font-decoration="none" font-family="Arial,Helvetica" font-size="11" font-weight="normal" text-anchor="middle"><tspan x="400" y="149">impinge</tspan></text><g><path d="M 263.0 359.5 L 260.0 353.5 L 263.0 355.0 L 266.0 353.5 z" fill="#999" stroke="#999" stroke-width="1.0"/><path d="M 233.85714285714286 129.78016119673885 L 233.85714285714286 136.89008059836942 Q 233.85714285714286 144.0 223.87906369609502 144.6617675240316 L 77.97807916104784 154.3382324759684 Q 68.0 155.0 68.0 165.0 L 68.0 235.0 Q 68.0 245.0 68.0 245.0 L 68.0 245.0 L 68.0 325.0 Q 68.0 335.0 77.97785157856609 335.66519010523774 L 253.0221484214339 347.33480989476226 Q 263.0 348.0 263.0 354.0 L 263.0 360.0" fill="none" stroke="#999" stroke-width="1.0"/></g><text fill="black" font-decoration="none" font-family="Arial,Helvetica" font-size="11" font-weight="normal" text-anchor="middle"><tspan x="67" y="260">purging</tspan></text><g><path d="M 291.2857142857143 127.43807731381987 L 294.2857142857143 133.43807731381986 L 291.2857142857143 131.93807731381986 L 288.2857142857143 133.43807731381986 z" fill="#999" stroke="#999" stroke-width="1.0"/><path d="M 402.0 629.5 L 402.0 622.75 Q 402.0 616.0 411.96744984437163 615.1938092037641 L 528.0325501556283 605.8061907962359 Q 538.0 605.0 538.0 595.0 L 538.0 525.0 Q 538.0 515.0 538.0 515.0 L 538.0 515.0 L 538.0 435.0 Q 538.0 425.0 538.0 425.0 L 538.0 425.0 L 538.0 345.0 Q 538.0 335.0 538.0 335.0 L 538.0 335.0 L 538.0 255.0 Q 538.0 245.0 528.0 245.0 L 446.0 245.0 Q 436.0 245.0 436.0 235.0 L 436.0 165.0 Q 436.0 155.0 426.01928300094073 154.37928413530037 L 301.26643128477355 146.62071586469963 Q 291.2857142857143 146.0 291.2857142857143 136.46903865690993 L 291.2857142857143 126.93807731381987" fill="none" stroke="#999" stroke-width="1.0"/></g><text fill="black" font-decoration="none" font-family="Arial,Helvetica" font-size="11" font-weight="normal" text-anchor="middle"><tspan x="537" y="324">turbopump</tspan></text><g><path d="M 155.0 269.5 L 152.0 263.5 L 155.0 265.0 L 158.0 263.5 z" fill="#999" stroke="#999" stroke-width="1.0"/><path d="M 253.0 220.5 L 253.0 227.25 Q 253.0 234.0 243.28702688368028 236.37868729379258 L 164.71297311631972 255.62131270620742 Q 155.0 258.0 155.0 264.0 L 155.0 270.0" fill="none" stroke="#999" stroke-width="1.0"/></g><text fill="black" font-decoration="none" font-family="Arial,Helvetica" font-size="11" font-weight="normal" text-anchor="middle"><tspan x="204" y="248">unreducibleness</tspan></text><g><path d="M 253.0 179.5 L 250.0 173.5 L 253.0 175.0 L 256.0 173.5 z" fill="#999" stroke="#999" stroke-width="1.0"/><path d="M 253.0 130.5 L 253.0 138.25 Q 253.0 146.0 253.0 156.0 L 253.0 162.0 Q 253.0 168.0 253.0 174.0 L 253.0 180.0" fill="none" stroke="#999" stroke-width="1.0"/></g><text fill="black" font-decoration="none" font-family="Arial,Helvetica" font-size="11" font-weight="normal" text-anchor="middle"><tspan x="253" y="157">smockless</tspan></text><g><path d="M 257.66666666666663 543.722961920704 L 254.66666666666663 537.722961920704 L 257.66666666666663 539.222961920704 L 260.66666666666663 537.722961920704 z" fill="#999" stroke="#999" stroke-width="1.0"/><path d="M 237.0 490.5 L 237.0 496.25 Q 237.0 502.0 243.22244125575367 509.8282325475611 L 251.44422541091296 520.1717674524389 Q 257.66666666666663 528.0 257.66666666666663 536.1114809603521 L 257.66666666666663 544.222961920704" fill="none" stroke="#999" stroke-width="1.0"/></g><text fill="black" font-decoration="none" font-family="Arial,Helvetica" font-size="11" font-weight="normal" text-anchor="middle"><tspan x="248" y="519">Terence</tspan></text><g><path d="M 310.42857142857144 122.56323099132705 L 313.42857142857144 128.56323099132703 L 310.42857142857144 127.06323099132705 L 307.42857142857144 128.56323099132703 z" fill="#999" stroke="#999" stroke-width="1.0"/><path d="M 441.3333333333333 633.722961920704 L 441.3333333333333 624.8614809603521 Q 441.3333333333333 616.0 451.2805798995859 614.9741901978553 L 538.0527534337474 606.0258098021447 Q 548.0 605.0 548.0 595.0 L 548.0 525.0 Q 548.0 515.0 548.0 515.0 L 548.0 515.0 L 548.0 435.0 Q 548.0 425.0 548.0 425.0 L 548.0 425.0 L 548.0 345.0 Q 548.0 335.0 548.0 335.0 L 548.0 335.0 L 548.0 255.0 Q 548.0 245.0 538.0 245.0 L 456.0 245.0 Q 446.0 245.0 446.0 235.0 L 446.0 165.0 Q 446.0 155.0 436.02196271871173 154.33760131852355 L 320.4066087098597 146.66239868147645 Q 310.42857142857144 146.0 310.42857142857144 136.0 L 310.42857142857144 122.06323099132705" fill="none" stroke="#999" stroke-width="1.0"/></g><text fill="black" font-decoration="none" font-family="Arial,Helvetica" font-size="11" font-weight="normal" text-anchor="middle"><tspan x="548" y="314">dissemblingly</tspan></text><g><path d="M 195.57142857142858 122.56323099132706 L 198.57142857142858 128.56323099132706 L 195.57142857142858 127.06323099132706 L 192.57142857142858 128.56323099132706 z" fill="#999" stroke="#999" stroke-width="1.0"/><path d="M 154.5 631.9106780812298 L 154.5 624.955339040615 Q 154.5 618.0 144.5485105335194 617.0162025622491 L 32.951489466480616 605.9837974377509 Q 23.0 605.0 23.0 595.0 L 23.0 525.0 Q 23.0 515.0 23.0 515.0 L 23.0 515.0 L 23.0 435.0 Q 23.0 425.0 23.0 425.0 L 23.0 425.0 L 23.0 345.0 Q 23.0 335.0 23.0 335.0 L 23.0 335.0 L 23.0 255.0 Q 23.0 245.0 23.0 245.0 L 23.0 245.0 L 23.0 165.0 Q 23.0 155.0 32.971746300816186 154.24881712469016 L 185.5996822706124 142.75118287530984 Q 195.57142857142858 142.0 195.57142857142858 132.03161549566352 L 195.57142857142858 122.06323099132706" fill="none" stroke="#999" stroke-width="1.0"/></g><text fill="black" font-decoration="none" font-family="Arial,Helvetica" font-size="11" font-weight="normal" text-anchor="middle"><tspan x="23" y="359">Tongan</tspan></text><g><path d="M 336.3333333333333 543.722961920704 L 333.3333333333333 537.722961920704 L 336.3333333333333 539.222961920704 L 339.3333333333333 537.722961920704 z" fill="#999" stroke="#999" stroke-width="1.0"/><path d="M 426.3333333333333 35.91884981784359 L 426.3333333333333 43.9594249089218 Q 426.3333333333333 52.0 436.19259917934653 53.671788556497894 L 493.1407341539868 63.328211443502106 Q 503.0 65.0 503.0 75.0 L 503.0 145.0 Q 503.0 155.0 503.0 155.0 L 503.0 155.0 L 503.0 235.0 Q 503.0 245.0 503.0 245.0 L 503.0 245.0 L 503.0 325.0 Q 503.0 335.0 503.0 335.0 L 503.0 335.0 L 503.0 415.0 Q 503.0 425.0 503.0 425.0 L 503.0 425.0 L 503.0 505.0 Q 503.0 515.0 493.03028189356274 515.7776380123021 L 346.30305143977057 527.2223619876979 Q 336.3333333333333 528.0 336.3333333333333 536.1114809603521 L 336.3333333333333 544.222961920704" fill="none" stroke="#999" stroke-width="1.0"/></g><text fill="black" font-decoration="none" font-family="Arial,Helvetica" font-size="11" font-weight="normal" text-anchor="middle"><tspan x="502" y="337">Coccinellidae</tspan></text></svg>