<svg xmlns="http://www.w3.org/2000/svg" xmlns:xlink="http://www.w3.org/1999/xlink" height="401" version="1.1" viewBox="0 0 997 401" width="997"><rect fill="#ffffff" height="401" width="997"/><ellipse cx="425" cy="110" fill="#eeeeee" rx="104" ry="20" stroke="white" stroke-width="1.0"/><text fill="black" font-decoration="none" font-family="Arial,Helvetica" font-size="16" font-weight="normal" text-anchor="middle"><tspan x="425" y="115">grossulaceous</tspan></text><ellipse cx="459" cy="290" fill="#eeeeee" rx="64" ry="20" stroke="white" stroke-width="1.0"/><text fill="black" font-decoration="none" font-family="Arial,Helvetica" font-size="16" font-weight="normal" text-anchor="middle"><tspan x="459" y="295">escruage</tspan></text><ellipse cx="592" cy="380" fill="#eeeeee" rx="112" ry="20" stroke="white" stroke-width="1.0"/><text fill="black" font-decoration="none" font-family="Arial,Helvetica" font-size="16" font-weight="normal" text-anchor="middle"><tspan x="592" y="385">brachiorrheuma</tspan></text><ellipse cx="120" cy="20" fill="#eeeeee" rx="120" ry="20" stroke="white" stroke-width="1.0"/><text fill="black" font-decoration="none" font-family="Arial,Helvetica" font-size="16" font-weight="normal" text-anchor="middle"><tspan x="120" y="25">caterpillarlike</tspan></text><ellipse cx="312" cy="200" fill="#eeeeee" rx="56" ry="20" stroke="white" stroke-width="1.0"/><text fill="black" font-decoration="none" font-family="Arial,Helvetica" font-size="16" font-weight="normal" text-anchor="middle"><tspan x="312" y="205">abreast</tspan></text><ellipse cx="685" cy="20" fill="#eeeeee" rx="96" ry="20" stroke="white" stroke-width="1.0"/><text fill="black" font-decoration="none" font-family="Arial,Helvetica" font-size="16" font-weight="normal" text-anchor="middle"><tspan x="685" y="25">apoplectical</tspan></text><ellipse cx="883" cy="110" fill="#eeeeee" rx="72" ry="20" stroke="white" stroke-width="1.0"/><text fill="black" font-decoration="none" font-family="Arial,Helvetica" font-size="16" font-weight="normal" text-anchor="middle"><tspan x="883" y="115">monoeidic</tspan></text><ellipse cx="187" cy="110" fill="#eeeeee" rx="104" ry="20" stroke="white" stroke-width="1.0"/><text fill="black" font-decoration="none" font-family="Arial,Helvetica" font-size="16" font-weight="normal" text-anchor="middle"><tspan x="186" y="115">presidentiary</tspan></text><ellipse cx="685" cy="110" fill="#eeeeee" rx="96" ry="20" stroke="white" stroke-width="1.0"/><text fill="black" font-decoration="none" font-family="Arial,Helvetica" font-size="16" font-weight="normal" text-anchor="middle"><tspan x="685" y="115">semiparallel</tspan></text><ellipse cx="863" cy="200" fill="#eeeeee" rx="96" ry="20" stroke="white" stroke-width="1.0"/><text fill="black" font-decoration="none" font-family="Arial,Helvetica" font-size="16" font-weight="normal" text-anchor="middle"><tspan x="863" y="205">colorability</tspan></text><g><path d="M 429.5 308.2486520174773 L 432.5 314.2486520174773 L 429.5 312.7486520174773 L 426.5 314.2486520174773 z" fill="#999" stroke="#999" stroke-width="1.0"/><path d="M 520.6666666666667 364.0811501821564 L 520.6666666666667 348.0 L 429.5 322.0 L 429.5 307.7486520174773" fill="none" stroke="#999" stroke-width="1.0"/></g><text fill="black" font-decoration="none" font-family="Arial,Helvetica" font-size="11" font-weight="normal" text-anchor="middle"><tspan x="475" y="337">thimbled</tspan></text><g><path d="M 375.5 91.91067808122979 L 372.5 85.91067808122979 L 375.5 87.41067808122979 L 378.5 85.91067808122979 z" fill="#999" stroke="#999" stroke-width="1.0"/><path d="M 607.0 32.15922381636102 L 607.0 52.0 L 375.5 78.0 L 375.5 92.41067808122979" fill="none" stroke="#999" stroke-width="1.0"/></g><text fill="black" font-decoration="none" font-family="Arial,Helvetica" font-size="11" font-weight="normal" text-anchor="middle"><tspan x="493" y="67">interjacent</tspan></text><g><path d="M 695.6037309140424 387.8487674934881 L 701.8132103803982 385.3105861057806 L 700.0908730101683 388.1887025007703 L 701.359963704022 391.29344223394827 z" fill="#999" stroke="#999" stroke-width="1.0"/><path d="M 695.6037309140424 372.1512325065119 L 724.0 370.0 L 724.0 390.0 L 695.1051595700285 387.8109969371234" fill="none" stroke="#999" stroke-width="1.0"/></g><text fill="black" font-decoration="none" font-family="Arial,Helvetica" font-size="11" font-weight="normal" text-anchor="middle"><tspan x="724" y="382">wavy</tspan></text><g><path d="M 498.3333333333333 273.722961920704 L 495.3333333333333 267.722961920704 L 498.3333333333333 269.222961920704 L 501.3333333333333 267.722961920704 z" fill="#999" stroke="#999" stroke-width="1.0"/><path d="M 659.0 39.7525250869132 L 659.0 54.0 L 559.0 65.0 L 559.0 155.0 L 559.0 155.0 L 559.0 245.0 L 498.3333333333333 256.0 L 498.3333333333333 274.222961920704" fill="none" stroke="#999" stroke-width="1.0"/></g><text fill="black" font-decoration="none" font-family="Arial,Helvetica" font-size="11" font-weight="normal" text-anchor="middle"><tspan x="558" y="139">statesider</tspan></text><g><path d="M 419.6666666666667 273.722961920704 L 416.6666666666667 267.722961920704 L 419.6666666666667 269.222961920704 L 422.6666666666667 267.722961920704 z" fill="#999" stroke="#999" stroke-width="1.0"/><path d="M 286.5 218.30617727025069 L 286.5 232.0 L 419.6666666666667 258.0 L 419.6666666666667 274.222961920704" fill="none" stroke="#999" stroke-width="1.0"/></g><text fill="black" font-decoration="none" font-family="Arial,Helvetica" font-size="11" font-weight="normal" text-anchor="middle"><tspan x="353" y="247">crowstep</tspan></text><g><path d="M 950.5465523703486 117.34201656199441 L 956.8355966910707 115.00793825739656 L 955.0202024541612 117.8282828754523 L 956.1872416064601 120.9728050358133 z" fill="#999" stroke="#999" stroke-width="1.0"/><path d="M 950.5465523703486 102.65798343800557 L 975.0 100.0 L 975.0 120.0 L 950.0494801388139 117.28798697161021" fill="none" stroke="#999" stroke-width="1.0"/></g><text fill="black" font-decoration="none" font-family="Arial,Helvetica" font-size="11" font-weight="normal" text-anchor="middle"><tspan x="975" y="112">prizer</tspan></text><g><path d="M 286.5 181.69382272974931 L 283.5 175.69382272974931 L 286.5 177.19382272974931 L 289.5 175.69382272974931 z" fill="#999" stroke="#999" stroke-width="1.0"/><path d="M 62.5 38.054478694117414 L 62.5 52.0 L 53.0 65.0 L 53.0 155.0 L 286.5 168.0 L 286.5 182.19382272974931" fill="none" stroke="#999" stroke-width="1.0"/></g><text fill="black" font-decoration="none" font-family="Arial,Helvetica" font-size="11" font-weight="normal" text-anchor="middle"><tspan x="116" y="161">gestatory</tspan></text><g><path d="M 639.5 91.889054559577 L 636.5 85.889054559577 L 639.5 87.389054559577 L 642.5 85.889054559577 z" fill="#999" stroke="#999" stroke-width="1.0"/><path d="M 685.0 40.5 L 685.0 56.0 L 639.5 78.0 L 639.5 92.389054559577" fill="none" stroke="#999" stroke-width="1.0"/></g><text fill="black" font-decoration="none" font-family="Arial,Helvetica" font-size="11" font-weight="normal" text-anchor="middle"><tspan x="662" y="69">gripping</tspan></text><g><path d="M 730.5 91.889054559577 L 727.5 85.889054559577 L 730.5 87.389054559577 L 733.5 85.889054559577 z" fill="#999" stroke="#999" stroke-width="1.0"/><path d="M 711.0 39.7525250869132 L 711.0 56.0 L 730.5 78.0 L 730.5 92.389054559577" fill="none" stroke="#999" stroke-width="1.0"/></g><text fill="black" font-decoration="none" font-family="Arial,Helvetica" font-size="11" font-weight="normal" text-anchor="middle"><tspan x="719" y="68">fatbrained</tspan></text><g><path d="M 663.3333333333334 364.0811501821564 L 660.3333333333334 358.0811501821564 L 663.3333333333334 359.5811501821564 L 666.3333333333334 358.0811501821564 z" fill="#999" stroke="#999" stroke-width="1.0"/><path d="M 863.0 220.5 L 863.0 232.0 L 726.0 245.0 L 726.0 335.0 L 663.3333333333334 346.0 L 663.3333333333334 364.5811501821564" fill="none" stroke="#999" stroke-width="1.0"/></g><text fill="black" font-decoration="none" font-family="Arial,Helvetica" font-size="11" font-weight="normal" text-anchor="middle"><tspan x="726" y="258">unbargained</tspan></text><g><path d="M 952.2037682969894 207.6899800256025 L 958.439261937298 205.21639577159576 L 956.6871397573767 208.07647756529104 L 957.9239318843801 211.19422438544538 z" fill="#999" stroke="#999" stroke-width="1.0"/><path d="M 952.2037682969894 192.3100199743975 L 979.0 190.0 L 979.0 210.0 L 951.7056159125019 207.647035854526" fill="none" stroke="#999" stroke-width="1.0"/></g><text fill="black" font-decoration="none" font-family="Arial,Helvetica" font-size="11" font-weight="normal" text-anchor="middle"><tspan x="978" y="202">sluer</tspan></text><g><path d="M 592.0 359.5 L 589.0 353.5 L 592.0 355.0 L 595.0 353.5 z" fill="#999" stroke="#999" stroke-width="1.0"/><path d="M 488.5 308.2486520174773 L 488.5 322.0 L 592.0 348.0 L 592.0 360.0" fill="none" stroke="#999" stroke-width="1.0"/></g><text fill="black" font-decoration="none" font-family="Arial,Helvetica" font-size="11" font-weight="normal" text-anchor="middle"><tspan x="538" y="337">maxwell</tspan></text><g><path d="M 283.4065976876732 117.77472561997365 L 289.6283339875052 115.26673889445998 L 287.8920354852265 118.13645447461505 L 289.14602884798336 121.24732262453104 z" fill="#999" stroke="#999" stroke-width="1.0"/><path d="M 283.4065976876732 102.22527438002635 L 311.0 100.0 L 311.0 120.0 L 282.90821571016727 117.73453352501349" fill="none" stroke="#999" stroke-width="1.0"/></g><text fill="black" font-decoration="none" font-family="Arial,Helvetica" font-size="11" font-weight="normal" text-anchor="middle"><tspan x="310" y="112">graymalkin</tspan></text><g><path d="M 474.5 91.91067808122979 L 471.5 85.91067808122979 L 474.5 87.41067808122979 L 477.5 85.91067808122979 z" fill="#999" stroke="#999" stroke-width="1.0"/><path d="M 633.0 37.31186750152668 L 633.0 52.0 L 474.5 78.0 L 474.5 92.41067808122979" fill="none" stroke="#999" stroke-width="1.0"/></g><text fill="black" font-decoration="none" font-family="Arial,Helvetica" font-size="11" font-weight="normal" text-anchor="middle"><tspan x="553" y="67">prehensive</tspan></text><g><path d="M 817.5 181.889054559577 L 814.5 175.889054559577 L 817.5 177.389054559577 L 820.5 175.889054559577 z" fill="#999" stroke="#999" stroke-width="1.0"/><path d="M 883.0 130.5 L 883.0 142.0 L 817.5 168.0 L 817.5 182.389054559577" fill="none" stroke="#999" stroke-width="1.0"/></g><text fill="black" font-decoration="none" font-family="Arial,Helvetica" font-size="11" font-weight="normal" text-anchor="middle"><tspan x="849" y="157">patriolatry</tspan></text><g><path d="M 337.5 181.69382272974931 L 334.5 175.69382272974931 L 337.5 177.19382272974931 L 340.5 175.69382272974931 z" fill="#999" stroke="#999" stroke-width="1.0"/><path d="M 425.0 130.5 L 425.0 142.0 L 337.5 168.0 L 337.5 182.19382272974931" fill="none" stroke="#999" stroke-width="1.0"/></g><text fill="black" font-decoration="none" font-family="Arial,Helvetica" font-size="11" font-weight="normal" text-anchor="middle"><tspan x="379" y="157">gup</tspan></text><g><path d="M 459.0 269.5 L 456.0 263.5 L 459.0 265.0 L 462.0 263.5 z" fill="#999" stroke="#999" stroke-width="1.0"/><path d="M 337.5 218.30617727025069 L 337.5 232.0 L 459.0 258.0 L 459.0 270.0" fill="none" stroke="#999" stroke-width="1.0"/></g><text fill="black" font-decoration="none" font-family="Arial,Helvetica" font-size="11" font-weight="normal" text-anchor="middle"><tspan x="397" y="247">unornly</tspan></text><g><path d="M 763.0 32.15922381636102 L 766.0 38.15922381636102 L 763.0 36.65922381636102 L 760.0 38.15922381636102 z" fill="#999" stroke="#999" stroke-width="1.0"/><path d="M 908.5 181.889054559577 L 908.5 168.0 L 985.0 155.0 L 985.0 65.0 L 763.0 56.0 L 763.0 31.65922381636102" fill="none" stroke="#999" stroke-width="1.0"/></g><text fill="black" font-decoration="none" font-family="Arial,Helvetica" font-size="11" font-weight="normal" text-anchor="middle"><tspan x="952" y="66">pseudodont</tspan></text><g><path d="M 187.0 89.5 L 184.0 83.5 L 187.0 85.0 L 190.0 83.5 z" fill="#999" stroke="#999" stroke-width="1.0"/><path d="M 177.5 38.054478694117414 L 177.5 52.0 L 187.0 78.0 L 187.0 90.0" fill="none" stroke="#999" stroke-width="1.0"/></g><text fill="black" font-decoration="none" font-family="Arial,Helvetica" font-size="11" font-weight="normal" text-anchor="middle"><tspan x="181" y="66">roundheaded</tspan></text><g><path d="M 883.0 89.5 L 880.0 83.5 L 883.0 85.0 L 886.0 83.5 z" fill="#999" stroke="#999" stroke-width="1.0"/><path d="M 737.0 37.31186750152668 L 737.0 58.0 L 883.0 78.0 L 883.0 90.0" fill="none" stroke="#999" stroke-width="1.0"/></g><text fill="black" font-decoration="none" font-family="Arial,Helvetica" font-size="11" font-weight="normal" text-anchor="middle"><tspan x="805" y="69">drawboard</tspan></text></svg>
