<svg xmlns="http://www.w3.org/2000/svg" xmlns:xlink="http://www.w3.org/1999/xlink" height="581" version="1.1" viewBox="0 0 557 581" width="557"><rect fill="#ffffff" height="581" width="557"/><ellipse cx="309" cy="110" fill="#eeeeee" rx="64" ry="20" stroke="white" stroke-width="1.0"/><text fill="black" font-decoration="none" font-family="Arial,Helvetica" font-size="16" font-weight="normal" text-anchor="middle"><tspan x="308" y="115">condylos</tspan></text><ellipse cx="271" cy="200" fill="#eeeeee" rx="48" ry="20" stroke="white" stroke-width="1.0"/><text fill="black" font-decoration="none" font-family="Arial,Helvetica" font-size="16" font-weight="normal" text-anchor="middle"><tspan x="271" y="205">dearly</tspan></text><ellipse cx="342" cy="470" fill="#eeeeee" rx="48" ry="20" stroke="white" stroke-width="1.0"/><text fill="black" font-decoration="none" font-family="Arial,Helvetica" font-size="16" font-weight="normal" text-anchor="middle"><tspan x="341" y="475">Rifian</tspan></text><ellipse cx="200" cy="470" fill="#eeeeee" rx="64" ry="20" stroke="white" stroke-width="1.0"/><text fill="black" font-decoration="none" font-family="Arial,Helvetica" font-size="16" font-weight="normal" text-anchor="middle"><tspan x="200" y="475">shamming</tspan></text><ellipse cx="484" cy="560" fill="#eeeeee" rx="72" ry="20" stroke="white" stroke-width="1.0"/><text fill="black" font-decoration="none" font-family="Arial,Helvetica" font-size="16" font-weight="normal" text-anchor="middle"><tspan x="484" y="565">naissance</tspan></text><ellipse cx="318" cy="560" fill="#eeeeee" rx="64" ry="20" stroke="white" stroke-width="1.0"/><text fill="black" font-decoration="none" font-family="Arial,Helvetica" font-size="16" font-weight="normal" text-anchor="middle"><tspan x="317" y="565">drumfish</tspan></text><ellipse cx="112" cy="560" fill="#eeeeee" rx="112" ry="20" stroke="white" stroke-width="1.0"/><text fill="black" font-decoration="none" font-family="Arial,Helvetica" font-size="16" font-weight="normal" text-anchor="middle"><tspan x="111" y="565">proletarianism</tspan></text><ellipse cx="309" cy="20" fill="#eeeeee" rx="64" ry="20" stroke="white" stroke-width="1.0"/><text fill="black" font-decoration="none" font-family="Arial,Helvetica" font-size="16" font-weight="normal" text-anchor="middle"><tspan x="309" y="25">ambition</tspan></text><ellipse cx="263" cy="380" fill="#eeeeee" rx="64" ry="20" stroke="white" stroke-width="1.0"/><text fill="black" font-decoration="none" font-family="Arial,Helvetica" font-size="16" font-weight="normal" text-anchor="middle"><tspan x="263" y="385">epoptist</tspan></text><ellipse cx="192" cy="290" fill="#eeeeee" rx="72" ry="20" stroke="white" stroke-width="1.0"/><text fill="black" font-decoration="none" font-family="Arial,Helvetica" font-size="16" font-weight="normal" text-anchor="middle"><tspan x="191" y="295">towerwort</tspan></text><g><path d="M 331.25 450.0080256009756 L 328.25 444.0080256009756 L 331.25 445.5080256009756 L 334.25 444.0080256009756 z" fill="#999" stroke="#999" stroke-width="1.0"/><path d="M 263.0 400.5 L 263.0 407.25 Q 263.0 414.0 272.51774314198445 417.06799046335027 L 321.73225685801555 432.93200953664973 Q 331.25 436.0 331.25 443.25401280048777 L 331.25 450.5080256009756" fill="none" stroke="#999" stroke-width="1.0"/></g><text fill="black" font-decoration="none" font-family="Arial,Helvetica" font-size="11" font-weight="normal" text-anchor="middle"><tspan x="297" y="427">nonloser</tspan></text><g><path d="M 192.0 269.5 L 189.0 263.5 L 192.0 265.0 L 195.0 263.5 z" fill="#999" stroke="#999" stroke-width="1.0"/><path d="M 236.6 214.44831730193846 L 236.6 223.22415865096923 Q 236.6 232.0 227.9608062208866 237.0363013062096 L 200.63919377911338 252.9636986937904 Q 192.0 258.0 192.0 264.0 L 192.0 270.0" fill="none" stroke="#999" stroke-width="1.0"/></g><text fill="black" font-decoration="none" font-family="Arial,Helvetica" font-size="11" font-weight="normal" text-anchor="middle"><tspan x="216" y="245">grassbird</tspan></text><g><path d="M 309.0 89.5 L 306.0 83.5 L 309.0 85.0 L 312.0 83.5 z" fill="#999" stroke="#999" stroke-width="1.0"/><path d="M 309.0 40.5 L 309.0 46.25 Q 309.0 52.0 309.0 62.0 L 309.0 70.0 Q 309.0 78.0 309.0 84.0 L 309.0 90.0" fill="none" stroke="#999" stroke-width="1.0"/></g><text fill="black" font-decoration="none" font-family="Arial,Helvetica" font-size="11" font-weight="normal" text-anchor="middle"><tspan x="309" y="67">Phytomastigoda</tspan></text><g><path d="M 374.25 454.6867088818858 L 371.25 448.6867088818858 L 374.25 450.1867088818858 L 377.25 448.6867088818858 z" fill="#999" stroke="#999" stroke-width="1.0"/><path d="M 288.2 219.17187427359366 L 288.2 227.58593713679682 Q 288.2 236.0 298.115521233718 237.29708853348055 L 347.08447876628196 243.70291146651945 Q 357.0 245.0 357.0 255.0 L 357.0 325.0 Q 357.0 335.0 357.0 335.0 L 357.0 335.0 L 357.0 415.0 Q 357.0 425.0 365.43157953899936 430.3766594161735 L 369.8407897694997 433.1883297080867 Q 374.25 436.0 374.25 445.5933544409429 L 374.25 455.1867088818858" fill="none" stroke="#999" stroke-width="1.0"/></g><text fill="black" font-decoration="none" font-family="Arial,Helvetica" font-size="11" font-weight="normal" text-anchor="middle"><tspan x="357" y="313">uneffete</tspan></text><g><path d="M 305.4 214.44831730193846 L 308.4 220.44831730193846 L 305.4 218.94831730193846 L 302.4 220.44831730193846 z" fill="#999" stroke="#999" stroke-width="1.0"/><path d="M 484.0 539.5 L 484.0 532.75 Q 484.0 526.0 474.14451109240247 524.3060878440067 L 429.85548890759753 516.6939121559933 Q 420.0 515.0 420.0 505.0 L 420.0 435.0 Q 420.0 425.0 420.0 425.0 L 420.0 425.0 L 420.0 345.0 Q 420.0 335.0 420.0 335.0 L 420.0 335.0 L 420.0 255.0 Q 420.0 245.0 410.0457507025617 244.0445310447485 L 315.3542492974383 234.9554689552515 Q 305.4 234.0 305.4 224.0 L 305.4 213.94831730193846" fill="none" stroke="#999" stroke-width="1.0"/></g><text fill="black" font-decoration="none" font-family="Arial,Helvetica" font-size="11" font-weight="normal" text-anchor="middle"><tspan x="420" y="354">flagellula</tspan></text><g><path d="M 271.0 179.5 L 268.0 173.5 L 271.0 175.0 L 274.0 173.5 z" fill="#999" stroke="#999" stroke-width="1.0"/><path d="M 279.5 128.24865201747727 L 279.5 135.12432600873865 Q 279.5 142.0 276.3926114369258 151.50495325175646 L 273.6963057184629 159.75247662587822 Q 271.0 168.0 271.0 174.0 L 271.0 180.0" fill="none" stroke="#999" stroke-width="1.0"/></g><text fill="black" font-decoration="none" font-family="Arial,Helvetica" font-size="11" font-weight="normal" text-anchor="middle"><tspan x="275" y="156">outyard</tspan></text><g><path d="M 318.0 539.5 L 315.0 533.5 L 318.0 535.0 L 321.0 533.5 z" fill="#999" stroke="#999" stroke-width="1.0"/><path d="M 229.5 488.2486520174773 L 229.5 495.12432600873865 Q 229.5 502.0 239.09451772471837 504.8187283711037 L 308.4054822752816 525.1812716288963 Q 318.0 528.0 318.0 534.0 L 318.0 540.0" fill="none" stroke="#999" stroke-width="1.0"/></g><text fill="black" font-decoration="none" font-family="Arial,Helvetica" font-size="11" font-weight="normal" text-anchor="middle"><tspan x="272" y="517">Slavonicize</tspan></text><g><path d="M 253.79999999999998 219.17187427359366 L 256.79999999999995 225.17187427359366 L 253.79999999999998 223.67187427359366 L 250.79999999999998 225.17187427359366 z" fill="#999" stroke="#999" stroke-width="1.0"/><path d="M 263.0 359.5 L 263.0 352.75 Q 263.0 346.0 272.5635157105134 343.0778146440098 L 289.4364842894866 337.9221853559902 Q 299.0 335.0 299.0 325.0 L 299.0 255.0 Q 299.0 245.0 289.28359088317194 242.63538716183388 L 263.5164091168281 236.36461283816612 Q 253.79999999999998 234.0 253.79999999999998 226.33593713679682 L 253.79999999999998 218.67187427359366" fill="none" stroke="#999" stroke-width="1.0"/></g><text fill="black" font-decoration="none" font-family="Arial,Helvetica" font-size="11" font-weight="normal" text-anchor="middle"><tspan x="299" y="287">catheterization</tspan></text><g><path d="M 378.30370917255135 567.1790129967322 L 384.61627748707633 564.909325512858 L 382.7721564064286 567.7109710007653 L 383.9070001483657 570.8672551580278 z" fill="#999" stroke="#999" stroke-width="1.0"/><path d="M 378.30370917255135 552.8209870032678 L 392.0701172580506 551.1821288978512 Q 402.0 550.0 402.0 560.0 L 402.0 565.0 Q 402.0 570.0 392.0701172580506 568.8178711021488 L 377.80721503545385 567.1199065518397" fill="none" stroke="#999" stroke-width="1.0"/></g><text fill="black" font-decoration="none" font-family="Arial,Helvetica" font-size="11" font-weight="normal" text-anchor="middle"><tspan x="402" y="562">unkicked</tspan></text><g><path d="M 58.5 541.9293064178108 L 55.5 535.9293064178108 L 58.5 537.4293064178108 L 61.5 535.9293064178108 z" fill="#999" stroke="#999" stroke-width="1.0"/><path d="M 147.33333333333334 306.1861799500902 L 147.33333333333334 314.09308997504513 Q 147.33333333333334 322.0 137.7940250731286 325.000266307645 L 115.53930826020472 331.99973369235494 Q 106.0 335.0 106.0 345.0 L 106.0 415.0 Q 106.0 425.0 106.0 425.0 L 106.0 425.0 L 106.0 505.0 Q 106.0 515.0 96.35470859838652 517.6397639625468 L 68.14529140161348 525.3602360374531 Q 58.5 528.0 58.5 535.2146532089055 L 58.5 542.4293064178108" fill="none" stroke="#999" stroke-width="1.0"/></g><text fill="black" font-decoration="none" font-family="Arial,Helvetica" font-size="11" font-weight="normal" text-anchor="middle"><tspan x="106" y="429">dour</tspan></text><g><path d="M 223.66666666666666 363.722961920704 L 220.66666666666666 357.722961920704 L 223.66666666666666 359.222961920704 L 226.66666666666666 357.722961920704 z" fill="#999" stroke="#999" stroke-width="1.0"/><path d="M 236.66666666666666 306.1861799500902 L 236.66666666666666 314.09308997504513 Q 236.66666666666666 322.0 232.19453071166708 330.94427190999915 L 227.93059868916686 339.47213595499954 Q 223.66666666666666 348.0 223.66666666666666 356.11148096035197 L 223.66666666666666 364.222961920704" fill="none" stroke="#999" stroke-width="1.0"/></g><text fill="black" font-decoration="none" font-family="Arial,Helvetica" font-size="11" font-weight="normal" text-anchor="middle"><tspan x="229" y="337">princecraft</tspan></text><g><path d="M 439.3333333333333 543.8138200499099 L 436.3333333333333 537.8138200499099 L 439.3333333333333 539.3138200499099 L 442.3333333333333 537.8138200499099 z" fill="#999" stroke="#999" stroke-width="1.0"/><path d="M 342.0 490.5 L 342.0 496.25 Q 342.0 502.0 351.66125021204164 504.580744919655 L 429.6720831212916 525.419255080345 Q 439.3333333333333 528.0 439.3333333333333 536.1569100249549 L 439.3333333333333 544.3138200499099" fill="none" stroke="#999" stroke-width="1.0"/></g><text fill="black" font-decoration="none" font-family="Arial,Helvetica" font-size="11" font-weight="normal" text-anchor="middle"><tspan x="392" y="518">chevronelly</tspan></text><g><path d="M 271.0 220.5 L 274.0 226.5 L 271.0 225.0 L 268.0 226.5 z" fill="#999" stroke="#999" stroke-width="1.0"/><path d="M 302.3333333333333 363.722961920704 L 302.3333333333333 354.86148096035197 Q 302.3333333333333 346.0 305.66666666666663 340.5 L 307.3333333333333 337.75 Q 309.0 335.0 309.0 325.0 L 309.0 255.0 Q 309.0 245.0 299.39435735585437 242.21941923458942 L 280.60564264414563 236.78058076541058 Q 271.0 234.0 271.0 227.0 L 271.0 220.0" fill="none" stroke="#999" stroke-width="1.0"/></g><text fill="black" font-decoration="none" font-family="Arial,Helvetica" font-size="11" font-weight="normal" text-anchor="middle"><tspan x="308" y="281">underback</tspan></text><g><path d="M 200.0 449.5 L 197.0 443.5 L 200.0 445.0 L 203.0 443.5 z" fill="#999" stroke="#999" stroke-width="1.0"/><path d="M 223.66666666666666 396.277038079296 L 223.66666666666666 404.13851903964803 Q 223.66666666666666 412.0 216.93522109007898 419.3951092249836 L 206.73144557658767 430.6048907750164 Q 200.0 438.0 200.0 444.0 L 200.0 450.0" fill="none" stroke="#999" stroke-width="1.0"/></g><text fill="black" font-decoration="none" font-family="Arial,Helvetica" font-size="11" font-weight="normal" text-anchor="middle"><tspan x="212" y="425">sanctioner</tspan></text><g><path d="M 165.5 541.9293064178108 L 162.5 535.9293064178108 L 165.5 537.4293064178108 L 168.5 535.9293064178108 z" fill="#999" stroke="#999" stroke-width="1.0"/><path d="M 170.5 488.2486520174773 L 170.5 495.12432600873865 Q 170.5 502.0 168.61152606349876 511.8200644698065 L 167.0557630317494 519.9100322349033 Q 165.5 528.0 165.5 535.2146532089055 L 165.5 542.4293064178108" fill="none" stroke="#999" stroke-width="1.0"/></g><text fill="black" font-decoration="none" font-family="Arial,Helvetica" font-size="11" font-weight="normal" text-anchor="middle"><tspan x="167" y="517">Ornithopoda</tspan></text><g><path d="M 369.30370917255146 117.17901299673231 L 375.61627748707645 114.90932551285816 L 373.77215640642873 117.71097100076531 L 374.9070001483658 120.86725515802782 z" fill="#999" stroke="#999" stroke-width="1.0"/><path d="M 369.30370917255146 102.82098700326769 L 383.0701172580506 101.18212889785113 Q 393.0 100.0 393.0 110.0 L 393.0 115.0 Q 393.0 120.0 383.0701172580506 118.81787110214887 L 368.80721503545396 117.11990655183976" fill="none" stroke="#999" stroke-width="1.0"/></g><text fill="black" font-decoration="none" font-family="Arial,Helvetica" font-size="11" font-weight="normal" text-anchor="middle"><tspan x="393" y="112">orthodome</tspan></text><g><path d="M 316.75821557966117 206.7291493499502 L 323.1308523633348 204.63403588682465 L 321.210331688803 207.38387230717694 L 322.25788842036576 210.57019069901375 z" fill="#999" stroke="#999" stroke-width="1.0"/><path d="M 316.75821557966117 193.2708506500498 L 329.10640864635144 191.4549399049483 Q 339.0 190.0 339.0 200.0 L 339.0 205.0 Q 339.0 210.0 329.10640864635144 208.5450600950517 L 316.2635360119787 206.65640235470278" fill="none" stroke="#999" stroke-width="1.0"/></g><text fill="black" font-decoration="none" font-family="Arial,Helvetica" font-size="11" font-weight="normal" text-anchor="middle"><tspan x="338" y="202">unconfessing</tspan></text><g><path d="M 528.6666666666666 543.8138200499097 L 525.6666666666666 537.8138200499097 L 528.6666666666666 539.3138200499097 L 531.6666666666666 537.8138200499097 z" fill="#999" stroke="#999" stroke-width="1.0"/><path d="M 338.5 128.24865201747727 L 338.5 135.12432600873865 Q 338.5 142.0 348.43271680901125 143.15807460553495 L 440.06728319098875 153.84192539446505 Q 450.0 155.0 450.0 165.0 L 450.0 235.0 Q 450.0 245.0 450.0 245.0 L 450.0 245.0 L 450.0 325.0 Q 450.0 335.0 450.0 335.0 L 450.0 335.0 L 450.0 415.0 Q 450.0 425.0 450.0 425.0 L 450.0 425.0 L 450.0 505.0 Q 450.0 515.0 459.86618969741403 516.6304296533863 L 518.8004769692526 526.3695703466138 Q 528.6666666666666 528.0 528.6666666666666 536.1569100249549 L 528.6666666666666 544.3138200499097" fill="none" stroke="#999" stroke-width="1.0"/></g><text fill="black" font-decoration="none" font-family="Arial,Helvetica" font-size="11" font-weight="normal" text-anchor="middle"><tspan x="450" y="322">contradicter</tspan></text><g><path d="M 352.75 450.0080256009756 L 349.75 444.0080256009756 L 352.75 445.5080256009756 L 355.75 444.0080256009756 z" fill="#999" stroke="#999" stroke-width="1.0"/><path d="M 302.3333333333333 396.277038079296 L 302.3333333333333 405.13851903964803 Q 302.3333333333333 414.0 311.49872711702966 417.9994445601584 L 343.58460621630365 432.0005554398416 Q 352.75 436.0 352.75 443.25401280048777 L 352.75 450.5080256009756" fill="none" stroke="#999" stroke-width="1.0"/></g><text fill="black" font-decoration="none" font-family="Arial,Helvetica" font-size="11" font-weight="normal" text-anchor="middle"><tspan x="325" y="426">displeasing</tspan></text><g><path d="M 192.0 310.5 L 195.0 316.5 L 192.0 315.0 L 189.0 316.5 z" fill="#999" stroke="#999" stroke-width="1.0"/><path d="M 309.75 454.6867088818858 L 309.75 446.3433544409429 Q 309.75 438.0 299.79238303446306 437.0802911506076 L 178.95761696553694 425.9197088493924 Q 169.0 425.0 169.0 415.0 L 169.0 345.0 Q 169.0 335.0 178.02134221635646 330.68544502695994 L 185.01067110817823 327.34272251348 Q 192.0 324.0 192.0 317.0 L 192.0 310.0" fill="none" stroke="#999" stroke-width="1.0"/></g><text fill="black" font-decoration="none" font-family="Arial,Helvetica" font-size="11" font-weight="normal" text-anchor="middle"><tspan x="183" y="428">widowerhood</tspan></text></svg>